HIERARCHY
ROOT ui
{
	 OFFSET 0 0 0
	 CHANNELS 3 XPosition YPosition Z Position
	 EndSite
	 {
	 OFFSET 0 -1 0
	 }
}
ROOT li
{
	 OFFSET 0 0 0
	 CHANNELS 3 XPosition YPosition Z Position
	 EndSite
	 {
	 OFFSET 0 -1 0
	 }
}
ROOT ul
{
	 OFFSET 0 0 0
	 CHANNELS 3 XPosition YPosition Z Position
	 EndSite
	 {
	 OFFSET 0 -1 0
	 }
}
ROOT ll
{
	 OFFSET 0 0 0
	 CHANNELS 3 XPosition YPosition Z Position
	 EndSite
	 {
	 OFFSET 0 -1 0
	 }
}
ROOT tt
{
	 OFFSET 0 0 0
	 CHANNELS 3 XPosition YPosition Z Position
	 EndSite
	 {
	 OFFSET 0 -1 0
	 }
}
ROOT tb
{
	 OFFSET 0 0 0
	 CHANNELS 3 XPosition YPosition Z Position
	 EndSite
	 {
	 OFFSET 0 -1 0
	 }
}
ROOT td
{
	 OFFSET 0 0 0
	 CHANNELS 3 XPosition YPosition Z Position
	 EndSite
	 {
	 OFFSET 0 -1 0
	 }
}
ROOT v
{
	 OFFSET 0 0 0
	 CHANNELS 3 XPosition YPosition Z Position
	 EndSite
	 {
	 OFFSET 0 -1 0
	 }
}
ROOT bn
{
	 OFFSET 0 0 0
	 CHANNELS 3 XPosition YPosition Z Position
	 EndSite
	 {
	 OFFSET 0 -1 0
	 }
}
MOTION
Frames: 21
Frame Time: 0.002
-0.0030051019191741943	-0.003668768882751465	0		0.5833231201171875	-2.609873046875	0		-1.136282958984375	0.08420279693603516	0		-0.5490780639648437	-2.65101416015625	0		1.2993724365234376	-0.6550341796875	0		2.755025390625	-0.3566982421875	0		4.11534521484375	0.13347509765625	0		5.897369140625	0.2820100708007813	0		-0.4813323974609375	5.81771728515625	0		
0.006984630107879639	0.006004152774810791	0		0.5870883178710937	-2.60518798828125	0		-1.06230712890625	0.0913927001953125	0		-0.5113521118164063	-2.650548583984375	0		1.3313511962890625	-0.6416448364257813	0		2.77071826171875	-0.3782681579589844	0		4.13814208984375	0.11974904632568359	0		5.897294921875	0.28088485717773437	0		-0.482008544921875	5.81952001953125	0		
0.0038666119575500486	0.0017935969829559325	0		0.584808837890625	-2.607447265625	0		-1.1452569580078125	0.10596244812011718	0		-0.5225370483398437	-2.6416533203125	0		1.3132601318359376	-0.6378139038085937	0		2.76871533203125	-0.36667776489257814	0		4.1240146484375	0.11335247039794921	0		5.8822587890625	0.2818231201171875	0		-0.347511962890625	5.83913037109375	0		
0.0037971479892730713	0.0015591659545898437	0		0.5746439208984375	-2.598632080078125	0		-1.0693223876953124	0.10512815856933594	0		-0.4878130187988281	-2.6451640625	0		1.3222451171875	-0.6272173461914062	0		2.767478515625	-0.3830892333984375	0		4.13583642578125	0.09973357391357422	0		5.8743583984375	0.28089813232421873	0		-0.4823604125976563	5.82012353515625	0		
-0.0033139479160308838	-0.004609831809997559	0		0.57238671875	-2.601884033203125	0		-1.1413341064453124	0.10961375427246094	0		-0.521000244140625	-2.6400673828125	0		1.30821826171875	-0.6194116821289063	0		2.715469482421875	-0.37503839111328124	0		4.12872265625	0.09228997039794921	0		5.8743125	0.27981918334960937	0		-0.5160836791992187	5.81422900390625	0		
-3.349539935588837E-4	-0.0018666989803314208	0		0.5861312866210937	-2.606278076171875	0		-1.061350830078125	0.11173519134521484	0		-0.5062582397460937	-2.6443984375	0		1.3111658935546875	-0.6157547607421875	0		2.7681416015625	-0.40392495727539063	0		4.1345087890625	0.07273529815673828	0		5.8857421875	0.2940703125	0		-0.5137674560546875	5.81201513671875	0		
0.006688414096832275	0.0048414931297302245	0		0.555087158203125	-2.58826220703125	0		-1.16227001953125	0.12449604797363281	0		-0.5772393798828125	-2.618947509765625	0		1.32803955078125	-0.621222412109375	0		2.7553037109375	-0.3792152099609375	0		4.14546435546875	0.07113866424560547	0		5.892841796875	0.2928540954589844	0		-0.4803673095703125	5.81852001953125	0		
0.0036174230575561524	6.432160139083862E-4	0		0.5788401489257813	-2.5937431640625	0		-1.0542554931640624	0.12835374450683593	0		-0.5184255981445313	-2.617677734375	0		1.31101171875	-0.6163770751953125	0		2.7379609375	-0.41045953369140625	0		4.14326904296875	0.0526673469543457	0		5.88568017578125	0.29196810913085935	0		-0.4820118103027344	5.82034326171875	0		
-0.0034703121185302734	-0.0055154628753662106	0		0.5516566772460938	-2.592753173828125	0		-1.13027685546875	0.12889787292480467	0		-0.5176025390625	-2.615878173828125	0		1.3079039306640625	-0.620654052734375	0		2.7319677734375	-0.4037979736328125	0		4.140193359375	0.04721435546875	0		5.874181640625	0.27563235473632813	0		-0.5157274169921875	5.81546435546875	0		
-0.0035048890113830566	-0.0057363958358764644	0		0.5675232543945312	-2.58715625	0		-1.049279052734375	0.1309908905029297	0		-0.5266897583007812	-2.6049853515625	0		1.27167626953125	-0.6376176147460938	0		2.767684814453125	-0.4285152893066406	0		4.141041015625	0.03373813247680664	0		5.8777783203125	0.29013189697265623	0		-0.4521766662597656	5.84068701171875	0		
-0.003544451951980591	-0.00595420789718628	0		0.5263324584960938	-2.588022216796875	0		-1.16521240234375	0.14191561889648438	0		-0.5798342895507812	-2.600678466796875	0		1.2716015625	-0.6379063720703125	0		2.747772216796875	-0.41270098876953126	0		4.14986328125	0.018206174850463868	0		5.87774560546875	0.289186767578125	0		-0.48594549560546874	5.8348125	0		
0.0034643709659576416	-2.3282599449157715E-4	0		0.5801242065429687	-2.59176904296875	0		-1.04219189453125	0.14760496520996094	0		-0.5458635864257813	-2.585182373046875	0		1.2715224609375	-0.6381832885742188	0		2.738460205078125	-0.43896664428710935	0		4.14677001953125	0.012812379837036134	0		5.881341796875	0.30552139282226565	0		-0.3194419860839844	5.86106201171875	0		
-0.011450160026550292	0.01470356559753418	0		0.54505810546875	-2.580669189453125	0		-1.1182388916015624	0.14816453552246095	0		-0.5219793090820313	-2.579589599609375	0		1.268399658203125	-0.64241552734375	0		2.76343017578125	-0.43452871704101564	0		4.1516474609375	0.0053774681091308596	0		5.8776650390625	0.287498046875	0		-0.4524319458007813	5.84112890625	0		
-0.0037173600196838377	-0.006564558982849121	0		0.5688447265625	-2.586110595703125	0		-1.0542095947265624	0.15740538024902342	0		-0.5160875244140625	-2.57382080078125	0		1.2622412109375	-0.6495994873046875	0		2.732214111328125	-0.44853121948242186	0		4.1524560546875	-0.007980559825897217	0		5.87761376953125	0.28678079223632813	0		-0.4532718505859375	5.8419619140625	0		
-0.0037973780632019043	-0.006745364189147949	0		0.5427159423828125	-2.5830615234375	0		-1.1421854248046874	0.16809332275390626	0		-0.5251405639648438	-2.56290087890625	0		1.25911328125	-0.6527901000976563	0		2.7590625	-0.4550518798828125	0		4.164251953125	-0.02140141296386719	0		5.87755419921875	0.2861572265625	0		-0.4872199401855469	5.83711865234375	0		
-0.018753421783447265	0.007230803012847901	0		0.5705551147460938	-2.584507568359375	0		-1.12632958984375	0.1618011474609375	0		-0.5871537475585937	-2.54846435546875	0		1.2590079345703125	-0.6529856567382812	0		2.768741943359375	-0.4783765258789062	0		4.16214208984375	-0.0236451473236084	0		5.87327685546875	0.3030310363769531	0		-0.437052978515625	5.84948583984375	0		
0.00913860034942627	0.00581402587890625	0		0.5235438232421875	-2.5712177734375	0		-1.112310302734375	0.1735348358154297	0		-0.5442355346679687	-2.543015869140625	0		1.26799560546875	-0.6432413940429688	0		2.777894775390625	-0.45165664672851563	0		4.188966796875	-0.03211741638183594	0		5.88105224609375	0.3024309692382813	0		-0.4380491943359375	5.8503525390625	0		
0.027970584869384765	-0.001498661994934082	0		0.5634313354492188	-2.570735595703125	0		-1.13338916015625	0.17561286926269531	0		-0.5902482299804688	-2.53170361328125	0		1.258795166015625	-0.6532960205078125	0		2.74152490234375	-0.47946405029296874	0		4.18481884765625	-0.03724275207519531	0		5.86950732421875	0.2868198852539062	0		-0.45318939208984377	5.84136865234375	0		
-0.0020807030200958253	0.0036757800579071045	0		0.5343140258789062	-2.572570068359375	0		-1.06253125	0.17082167053222655	0		-0.5252646484375	-2.52343798828125	0		1.2976358642578125	-0.6597802734375	0		2.7874033203125	-0.4820148010253906	0		4.1935361328125	-0.056438446044921875	0		5.873646484375	0.2692313842773438	0		-0.48733837890625	5.83658154296875	0		
-0.004286263942718506	-0.007397319793701172	0		0.54414990234375	-2.581753173828125	0		-1.1376298828125	0.1714359130859375	0		-0.5912442626953125	-2.5129052734375	0		1.2842647705078125	-0.6887359008789062	0		2.777250244140625	-0.4879869384765625	0		4.19535009765625	-0.06551258850097656	0		5.87720361328125	0.28464825439453123	0		-0.43934967041015627	5.851025390625	0		
0.0026687309741973875	-0.001537150025367737	0		0.5211616821289062	-2.57459716796875	0		-1.1296590576171874	0.1792662811279297	0		-0.5811971435546875	-2.50208447265625	0		1.29314599609375	-0.6918714599609375	0		2.812269775390625	-0.47634445190429686	0		4.2212958984375	-0.06075872802734375	0		5.880765625	0.3019208679199219	0		-0.4244612426757812	5.86080126953125	0		
